# xmcd
#
# Track frame offsets: 
#        150
#        15995
#        29720
#        45232
#        58317
#        77175
#        89322
#        105920
#        119595
#        137922
#        152350
#        164510
#        181797
#        195445
#        210865
#        225997
#        243187
#        257712
#        271037
#        286325
#
# Disc length: 4038 seconds
#
# Revision: 0
# Processed by: cddbd v1.5.2PL0 Copyright (c) Steve Scherf et al.
# Submitted via: ExactAudioCopyFreeDBPlugin 1.0
#
DISCID=f90fc414
DTITLE=Tony Christie - Meine schönsten Hits
DYEAR=2002
DGENRE=Country
TTITLE0=I did what I did for Maria feat. Albert West
TTITLE1=Is this the way to Amarillo feat. Albert West
TTITLE2=Release me
TTITLE3=Rhinestone Cowboy
TTITLE4=I can't stop loving you
TTITLE5=Some broken hearts never mend
TTITLE6=Take me home country roads
TTITLE7=Ruby 
TTITLE8=Lucille
TTITLE9=Raindrops keep falling
TTITLE10=Oh lonesome me
TTITLE11=Me and Marie
TTITLE12=I'm not chained to you
TTITLE13=All the way
TTITLE14=Arthur's theme (The best that you can do)
TTITLE15=A whole new world
TTITLE16=Born free
TTITLE17=The shadow of your smile
TTITLE18=I'm coming home
TTITLE19=Summer wine
EXTD=
EXTT0=
EXTT1=
EXTT2=
EXTT3=
EXTT4=
EXTT5=
EXTT6=
EXTT7=
EXTT8=
EXTT9=
EXTT10=
EXTT11=
EXTT12=
EXTT13=
EXTT14=
EXTT15=
EXTT16=
EXTT17=
EXTT18=
EXTT19=
PLAYORDER=
